<?xml version="1.0" encoding="UTF-8"?>
<!DOCTYPE svg PUBLIC "-//W3C//DTD SVG 1.1//EN" "http://www.w3.org/Graphics/SVG/1.1/DTD/svg11.dtd">
<svg xmlns="http://www.w3.org/2000/svg" version="1.1" width="175px" height="78px" style="shape-rendering:geometricPrecision; text-rendering:geometricPrecision; image-rendering:optimizeQuality; fill-rule:evenodd; clip-rule:evenodd" xmlns:xlink="http://www.w3.org/1999/xlink">
<g><path style="opacity:0.961" fill="#71839d" d="M -0.5,-0.5 C 1.83333,-0.5 4.16667,-0.5 6.5,-0.5C 6.5,11.1667 6.5,22.8333 6.5,34.5C 4.16667,34.5 1.83333,34.5 -0.5,34.5C -0.5,22.8333 -0.5,11.1667 -0.5,-0.5 Z"/></g>
<g><path style="opacity:0.951" fill="#72849c" d="M 19.5,-0.5 C 24.5,-0.5 29.5,-0.5 34.5,-0.5C 37.6891,0.940186 40.3558,3.10685 42.5,6C 41.1667,7.33333 39.8333,8.66667 38.5,10C 35.9023,9.87443 33.569,8.87443 31.5,7C 17.6968,5.81384 13.5301,11.6472 19,24.5C 25.5527,28.9571 31.5527,28.2904 37,22.5C 39.0088,24.0105 40.8421,25.6771 42.5,27.5C 44.9095,18.3005 46.5762,8.96721 47.5,-0.5C 50.1667,-0.5 52.8333,-0.5 55.5,-0.5C 57.5139,6.71066 60.0139,13.7107 63,20.5C 65.1815,13.4792 67.3482,6.47918 69.5,-0.5C 72.1667,-0.5 74.8333,-0.5 77.5,-0.5C 79.4911,11.1139 81.1577,22.7806 82.5,34.5C 80.1667,34.5 77.8333,34.5 75.5,34.5C 74.7522,28.1019 73.5855,21.7686 72,15.5C 70.3989,21.6366 68.3989,27.6366 66,33.5C 63.6194,34.435 61.1194,34.7683 58.5,34.5C 57.176,28.0272 55.3427,21.6938 53,15.5C 51.8312,21.8479 50.6645,28.1813 49.5,34.5C 47.1667,34.5 44.8333,34.5 42.5,34.5C 42.7852,32.712 42.4519,31.0453 41.5,29.5C 35.054,34.9443 27.7207,36.611 19.5,34.5C 8.14601,27.2528 5.64601,17.5861 12,5.5C 14.1141,2.87922 16.6141,0.879222 19.5,-0.5 Z"/></g>
<g><path style="opacity:0.948" fill="#72849c" d="M 93.5,-0.5 C 98.8333,-0.5 104.167,-0.5 109.5,-0.5C 111.508,1.26762 113.674,2.93429 116,4.5C 116.494,2.86586 116.66,1.19919 116.5,-0.5C 132.167,-0.5 147.833,-0.5 163.5,-0.5C 165.419,3.26857 165.919,7.26857 165,11.5C 162.619,12.435 160.119,12.7683 157.5,12.5C 157.5,14.1667 157.5,15.8333 157.5,17.5C 144.352,17.2395 131.352,17.0728 118.5,17C 116.934,14.0696 116.1,10.9029 116,7.5C 112.779,11.3405 109.613,11.1738 106.5,7C 93.0361,5.10719 88.3694,10.6072 92.5,23.5C 98.6935,28.7127 105.027,28.7127 111.5,23.5C 112.298,23.9569 112.631,24.6236 112.5,25.5C 111.028,28.0773 110.028,30.9107 109.5,34C 98.3396,37.521 89.8396,34.3544 84,24.5C 80.6446,13.5335 83.8113,5.20018 93.5,-0.5 Z M 119.5,1.5 C 121.167,1.5 122.833,1.5 124.5,1.5C 125.167,16.1667 125.833,16.1667 126.5,1.5C 128.167,1.5 129.833,1.5 131.5,1.5C 131.343,2.87344 131.51,4.20677 132,5.5C 134.277,8.39911 136.777,11.0658 139.5,13.5C 140.308,13.1924 140.975,12.6924 141.5,12C 131.04,3.06953 132.707,-0.263807 146.5,2C 147.108,2.86992 147.941,3.36992 149,3.5C 152.966,1.55329 157.132,1.05329 161.5,2C 162.435,4.3806 162.768,6.8806 162.5,9.5C 160.833,9.5 159.167,9.5 157.5,9.5C 157.5,7.16667 157.5,4.83333 157.5,2.5C 156.5,2.5 155.5,2.5 154.5,2.5C 154.5,6.83333 154.5,11.1667 154.5,15.5C 152.833,15.5 151.167,15.5 149.5,15.5C 149.682,9.84397 147.182,5.84397 142,3.5C 141.5,3.83333 141,4.16667 140.5,4.5C 142.483,6.98375 144.65,9.31708 147,11.5C 147.684,12.7839 147.517,13.9505 146.5,15C 142.833,15.6667 139.167,15.6667 135.5,15C 133.833,11.6667 132.167,11.6667 130.5,15C 127.167,15.6667 123.833,15.6667 120.5,15C 119.533,10.5986 119.2,6.09858 119.5,1.5 Z"/></g>
<g><path style="opacity:0.833" fill="#72849d" d="M 174.5,52.5 C 174.5,56.1667 174.5,59.8333 174.5,63.5C 170.541,71.4491 164.208,74.4491 155.5,72.5C 153.276,74.434 150.942,76.1006 148.5,77.5C 143.167,77.5 137.833,77.5 132.5,77.5C 130.9,76.3556 129.233,75.1889 127.5,74C 112.374,76.2077 105.874,69.7077 108,54.5C 109.809,49.1956 112.642,44.5289 116.5,40.5C 112.682,36.0637 111.349,31.0637 112.5,25.5C 118.275,19.1666 124.608,18.8333 131.5,24.5C 137.736,19.3131 143.903,19.3131 150,24.5C 155.506,19.8023 161.173,19.469 167,23.5C 168.112,25.3904 168.946,27.3904 169.5,29.5C 167.949,33.1517 166.782,36.8184 166,40.5C 169.101,44.3912 171.934,48.3912 174.5,52.5 Z M 120.5,30.5 C 122.089,29.3789 123.756,29.5456 125.5,31C 123.532,34.2091 121.865,34.0424 120.5,30.5 Z M 139.5,29.5 C 142.797,29.3287 143.131,29.9954 140.5,31.5C 139.702,31.0431 139.369,30.3764 139.5,29.5 Z M 157.5,29.5 C 160.548,29.494 161.048,30.494 159,32.5C 156.842,31.9498 156.342,30.9498 157.5,29.5 Z M 131.5,35.5 C 135.187,37.6346 134.854,39.6346 130.5,41.5C 129.692,41.1924 129.025,40.6924 128.5,40C 129.748,38.6003 130.748,37.1003 131.5,35.5 Z M 148.5,35.5 C 150.544,36.0312 152.211,37.1978 153.5,39C 151.697,42.0707 149.863,41.904 148,38.5C 147.53,37.4232 147.697,36.4232 148.5,35.5 Z M 140.5,43.5 C 143.002,45.1696 145.002,47.3363 146.5,50C 142.626,55.8081 142.626,61.6414 146.5,67.5C 142.774,70.0734 139.108,70.0734 135.5,67.5C 138.167,61.5 138.167,55.5 135.5,49.5C 137.537,47.7976 139.203,45.7976 140.5,43.5 Z M 122.5,46.5 C 123.391,47.2613 124.058,48.2613 124.5,49.5C 123.469,50.7003 122.635,52.0337 122,53.5C 121.667,57.5 121.333,61.5 121,65.5C 118.138,64.477 116.638,62.477 116.5,59.5C 117.699,54.7712 119.699,50.4379 122.5,46.5 Z M 158.5,46.5 C 162.147,49.7792 164.814,53.7792 166.5,58.5C 165.531,61.3017 163.698,63.3017 161,64.5C 161.073,58.8688 159.906,53.5354 157.5,48.5C 157.863,47.8165 158.196,47.1499 158.5,46.5 Z"/></g>
<g><path style="opacity:0.704" fill="#70839c" d="M 101.5,36.5 C 103.977,36.0508 105.977,36.7175 107.5,38.5C 105.784,38.9972 104.117,39.3306 102.5,39.5C 103.991,40.2436 105.491,40.9103 107,41.5C 107.244,45.9858 105.077,47.4858 100.5,46C 100.043,45.586 99.7093,45.086 99.5,44.5C 101.216,44.0028 102.883,43.6694 104.5,43.5C 99.3893,42.667 98.3893,40.3336 101.5,36.5 Z"/></g>
<g><path style="opacity:0.658" fill="#74869d" d="M 65.5,36.5 C 67.5273,36.3379 69.5273,36.5045 71.5,37C 72.8333,38.6667 72.8333,40.3333 71.5,42C 72.6872,43.0195 73.6872,44.1861 74.5,45.5C 73.635,46.5827 72.635,46.7494 71.5,46C 70.3333,44.8333 69.1667,43.6667 68,42.5C 67.7811,43.938 67.2811,45.2713 66.5,46.5C 65.513,43.2317 65.1796,39.8984 65.5,36.5 Z M 67.5,38.5 C 71.0507,39.1855 71.2173,40.1855 68,41.5C 67.5172,40.552 67.3505,39.552 67.5,38.5 Z"/></g>
<g><path style="opacity:0.649" fill="#78879f" d="M 25.5,36.5 C 29.7029,35.7021 32.3695,37.3688 33.5,41.5C 31.4329,46.7792 28.0995,47.7792 23.5,44.5C 21.9712,41.2817 22.6379,38.615 25.5,36.5 Z M 27.5,38.5 C 31.1844,40.2033 31.351,42.2033 28,44.5C 25.048,42.5506 24.8813,40.5506 27.5,38.5 Z"/></g>
<g><path style="opacity:0.722" fill="#72849d" d="M 88.5,36.5 C 95.8421,36.2066 97.8421,39.2066 94.5,45.5C 86.4148,46.8601 84.4148,43.8601 88.5,36.5 Z M 90.5,38.5 C 94.2064,40.0324 94.373,42.0324 91,44.5C 87.8981,42.6627 87.7314,40.6627 90.5,38.5 Z"/></g>
<g><path style="opacity:0.732" fill="#72849a" d="M 19.5,34.5 C 18.645,35.5307 17.9783,36.6974 17.5,38C 18.5979,40.4602 19.5979,42.9602 20.5,45.5C 20,45.8333 19.5,46.1667 19,46.5C 16.6667,43.8333 14.3333,43.8333 12,46.5C 11.5,46.1667 11,45.8333 10.5,45.5C 11.2173,43.1716 12.2173,41.0049 13.5,39C 12.8524,37.5603 12.5191,36.0603 12.5,34.5C 14.8333,34.5 17.1667,34.5 19.5,34.5 Z"/></g>
<g><path style="opacity:0.626" fill="#71859b" d="M 56.5,36.5 C 58.4109,36.5743 59.5776,37.5743 60,39.5C 60.5573,41.6147 61.3906,43.6147 62.5,45.5C 62,45.8333 61.5,46.1667 61,46.5C 58.6667,43.8333 56.3333,43.8333 54,46.5C 53.5,46.1667 53,45.8333 52.5,45.5C 53.5733,42.3561 54.9066,39.3561 56.5,36.5 Z"/></g>
<g><path style="opacity:0.8" fill="#6f819b" d="M 43.5,36.5 C 45.7925,36.2436 47.9592,36.5769 50,37.5C 50.6667,38.5 50.6667,39.5 50,40.5C 45.3236,37.508 43.8236,38.6747 45.5,44C 47.2251,43.5913 48.8918,43.7579 50.5,44.5C 47.7483,47.1345 44.9149,47.1345 42,44.5C 41.1093,41.5024 41.6093,38.8357 43.5,36.5 Z"/></g>
<g><path style="opacity:0.267" fill="#70829a" d="M -0.5,45.5 C -0.5,44.8333 -0.5,44.1667 -0.5,43.5C 0.930472,43.4208 2.26381,43.7542 3.5,44.5C 4.30806,44.1924 4.97473,43.6924 5.5,43C 3.18867,42.7641 1.18867,41.9307 -0.5,40.5C -0.5,39.8333 -0.5,39.1667 -0.5,38.5C 2.58272,35.9203 5.58272,35.9203 8.5,38.5C 6.36706,38.5808 4.36706,39.0808 2.5,40C 5.00819,40.115 7.00819,41.115 8.5,43C 6.39157,46.5834 3.39157,47.4167 -0.5,45.5 Z"/></g>
<g><path style="opacity:0.163" fill="#6f829c" d="M 77.5,36.5 C 79.3435,38.2789 80.0102,40.6122 79.5,43.5C 81.6648,43.1159 83.3315,43.7826 84.5,45.5C 82.2573,46.4742 79.924,46.8076 77.5,46.5C 77.5,43.1667 77.5,39.8333 77.5,36.5 Z"/></g>
</svg>
