<svg width="420" height="406" viewBox="0 0 420 406" fill="none" xmlns="http://www.w3.org/2000/svg">
<path d="M366 51.5H329L224 292.5L240 328.5L366 51.5Z" fill="#7FD3F5" stroke="#7FD3F5"/>
<path d="M177 388.5L1 1H388.5L382 17H31.5L200.5 388.5H177Z" fill="#7FD3F5" stroke="#7FD3F5"/>
<path d="M207.5 405L200.5 389H213L240 328L242.5 333.5L382.5 16.5H418.5L242.5 405H207.5Z" fill="#F17FBD" stroke="#F17FBD"/>
<path d="M213 389L240 328L224 292.5L212 319L88.5 35L336 35.5L329 51.5H367L382 17H31.5L201 389H213Z" fill="#B169B8" stroke="#B169B8"/>
<path d="M212 318.5L224 292L119 51.5H329L336 35.5L88.5 35L212 318.5Z" fill="#F17FBD" stroke="#F17FBD"/>
</svg>
