<svg width="428" height="572" viewBox="0 0 428 572" fill="none" xmlns="http://www.w3.org/2000/svg">
<g filter="url(#filter0_d)">
<path d="M370 51.5H333L228 292.5L244 328.5L370 51.5Z" fill="#7FD3F5" stroke="#7FD3F5"/>
<path d="M181 388.5L5 1H392.5L386 17H35.5L204.5 388.5H181Z" fill="#7FD3F5" stroke="#7FD3F5"/>
<path d="M211.5 405L204.5 389H217L244 328L246.5 333.5L386.5 16.5H422.5L246.5 405H211.5Z" fill="#F17FBD" stroke="#F17FBD"/>
<path d="M217 389L244 328L228 292.5L216 319L92.5 35L340 35.5L333 51.5H371L386 17H35.5L205 389H217Z" fill="#B169B8" stroke="#B169B8"/>
<path d="M216 318.5L228 292L123 51.5H333L340 35.5L92.5 35L216 318.5Z" fill="#F17FBD" stroke="#F17FBD"/>
</g>
<g filter="url(#filter1_d)">
<path d="M150.628 476.768V548H144.1V538.016C142.052 541.408 139.332 544 135.94 545.792C132.612 547.584 128.836 548.48 124.612 548.48C119.876 548.48 115.588 547.392 111.748 545.216C107.908 543.04 104.9 540 102.724 536.096C100.548 532.192 99.4597 527.744 99.4597 522.752C99.4597 517.76 100.548 513.312 102.724 509.408C104.9 505.504 107.908 502.496 111.748 500.384C115.588 498.208 119.876 497.12 124.612 497.12C128.708 497.12 132.388 497.984 135.652 499.712C138.98 501.376 141.7 503.84 143.812 507.104V476.768H150.628ZM125.188 542.432C128.708 542.432 131.876 541.632 134.692 540.032C137.572 538.368 139.812 536.032 141.412 533.024C143.076 530.016 143.908 526.592 143.908 522.752C143.908 518.912 143.076 515.488 141.412 512.48C139.812 509.472 137.572 507.168 134.692 505.568C131.876 503.904 128.708 503.072 125.188 503.072C121.604 503.072 118.372 503.904 115.492 505.568C112.676 507.168 110.436 509.472 108.772 512.48C107.172 515.488 106.372 518.912 106.372 522.752C106.372 526.592 107.172 530.016 108.772 533.024C110.436 536.032 112.676 538.368 115.492 540.032C118.372 541.632 121.604 542.432 125.188 542.432ZM194.474 497.12C201.066 497.12 206.122 498.784 209.642 502.112C213.162 505.376 214.922 510.24 214.922 516.704V548H208.394V540.128C206.858 542.752 204.586 544.8 201.578 546.272C198.634 547.744 195.114 548.48 191.018 548.48C185.386 548.48 180.906 547.136 177.578 544.448C174.25 541.76 172.586 538.208 172.586 533.792C172.586 529.504 174.122 526.048 177.194 523.424C180.33 520.8 185.29 519.488 192.074 519.488H208.106V516.416C208.106 512.064 206.89 508.768 204.458 506.528C202.026 504.224 198.474 503.072 193.802 503.072C190.602 503.072 187.53 503.616 184.586 504.704C181.642 505.728 179.114 507.168 177.002 509.024L173.93 503.936C176.49 501.76 179.562 500.096 183.146 498.944C186.73 497.728 190.506 497.12 194.474 497.12ZM192.074 543.104C195.914 543.104 199.21 542.24 201.962 540.512C204.714 538.72 206.762 536.16 208.106 532.832V524.576H192.266C183.626 524.576 179.306 527.584 179.306 533.6C179.306 536.544 180.426 538.88 182.666 540.608C184.906 542.272 188.042 543.104 192.074 543.104ZM267.227 544.928C265.947 546.08 264.347 546.976 262.427 547.616C260.571 548.192 258.619 548.48 256.571 548.48C251.835 548.48 248.187 547.2 245.627 544.64C243.067 542.08 241.787 538.464 241.787 533.792V503.264H232.763V497.504H241.787V486.464H248.603V497.504H263.963V503.264H248.603V533.408C248.603 536.416 249.339 538.72 250.811 540.32C252.347 541.856 254.523 542.624 257.339 542.624C258.747 542.624 260.091 542.4 261.371 541.952C262.715 541.504 263.867 540.864 264.827 540.032L267.227 544.928ZM304.499 497.12C311.091 497.12 316.147 498.784 319.667 502.112C323.187 505.376 324.947 510.24 324.947 516.704V548H318.419V540.128C316.883 542.752 314.611 544.8 311.603 546.272C308.659 547.744 305.139 548.48 301.043 548.48C295.411 548.48 290.931 547.136 287.603 544.448C284.275 541.76 282.611 538.208 282.611 533.792C282.611 529.504 284.147 526.048 287.219 523.424C290.355 520.8 295.315 519.488 302.099 519.488H318.131V516.416C318.131 512.064 316.915 508.768 314.483 506.528C312.051 504.224 308.499 503.072 303.827 503.072C300.627 503.072 297.555 503.616 294.611 504.704C291.667 505.728 289.139 507.168 287.027 509.024L283.955 503.936C286.515 501.76 289.587 500.096 293.171 498.944C296.755 497.728 300.531 497.12 304.499 497.12ZM302.099 543.104C305.939 543.104 309.235 542.24 311.987 540.512C314.739 538.72 316.787 536.16 318.131 532.832V524.576H302.291C293.651 524.576 289.331 527.584 289.331 533.6C289.331 536.544 290.451 538.88 292.691 540.608C294.931 542.272 298.067 543.104 302.099 543.104Z" fill="black"/>
</g>
<defs>
<filter id="filter0_d" x="0.223755" y="0.5" width="427.052" height="413" filterUnits="userSpaceOnUse" color-interpolation-filters="sRGB">
<feFlood flood-opacity="0" result="BackgroundImageFix"/>
<feColorMatrix in="SourceAlpha" type="matrix" values="0 0 0 0 0 0 0 0 0 0 0 0 0 0 0 0 0 0 127 0"/>
<feOffset dy="4"/>
<feGaussianBlur stdDeviation="2"/>
<feColorMatrix type="matrix" values="0 0 0 0 0 0 0 0 0 0 0 0 0 0 0 0 0 0 0.25 0"/>
<feBlend mode="normal" in2="BackgroundImageFix" result="effect1_dropShadow"/>
<feBlend mode="normal" in="SourceGraphic" in2="effect1_dropShadow" result="shape"/>
</filter>
<filter id="filter1_d" x="95.4597" y="476.768" width="233.488" height="79.712" filterUnits="userSpaceOnUse" color-interpolation-filters="sRGB">
<feFlood flood-opacity="0" result="BackgroundImageFix"/>
<feColorMatrix in="SourceAlpha" type="matrix" values="0 0 0 0 0 0 0 0 0 0 0 0 0 0 0 0 0 0 127 0"/>
<feOffset dy="4"/>
<feGaussianBlur stdDeviation="2"/>
<feColorMatrix type="matrix" values="0 0 0 0 0 0 0 0 0 0 0 0 0 0 0 0 0 0 0.25 0"/>
<feBlend mode="normal" in2="BackgroundImageFix" result="effect1_dropShadow"/>
<feBlend mode="normal" in="SourceGraphic" in2="effect1_dropShadow" result="shape"/>
</filter>
</defs>
</svg>
